<svg xmlns="http://www.w3.org/2000/svg" fill="white" viewBox="0 0 24 24" id="customize"><path d="M21 17.25H7.63c-.33-1.15-1.38-2-2.63-2-1.52 0-2.75 1.23-2.75 2.75s1.23 2.75 2.75 2.75c1.25 0 2.3-.85 2.63-2h13.37c.41 0 .75-.34.75-.75s-.34-.75-.75-.75zm-16 2c-.69 0-1.25-.56-1.25-1.25s.56-1.25 1.25-1.25 1.25.56 1.25 1.25-.56 1.25-1.25 1.25zM21 11.25h-4.37c-.33-1.15-1.38-2-2.63-2s-2.3.85-2.63 2H3c-.41 0-.75.34-.75.75s.34.75.75.75H11.37c.33 1.15 1.38 2 2.63 2s2.3-.85 2.63-2h4.37c.41 0 .75-.34.75-.75s-.34-.75-.75-.75zm-7 2c-.69 0-1.25-.56-1.25-1.25s.56-1.25 1.25-1.25 1.25.56 1.25 1.25-.56 1.25-1.25 1.25zM3 6.75h2.37c.33 1.15 1.38 2 2.63 2s2.3-.85 2.63-2h10.37c.41 0 .75-.34.75-.75s-.34-.75-.75-.75H10.63c-.33-1.15-1.38-2-2.63-2s-2.3.85-2.63 2H3c-.41 0-.75.34-.75.75s.34.75.75.75zm5-2c.69 0 1.25.56 1.25 1.25s-.56 1.25-1.25 1.25-1.25-.56-1.25-1.25.56-1.25 1.25-1.25z"></path></svg>